<mxfile host="app.diagrams.net" modified="2023-05-19T14:05:02.703Z" agent="Mozilla/5.0 (Windows NT 10.0; Win64; x64; rv:109.0) Gecko/20100101 Firefox/113.0" etag="HeSoygSJ7nphJDzeURQ1" version="21.3.2" type="github">
  <diagram id="kgpKYQtTHZ0yAKxKKP6v" name="Page-1">
    <mxGraphModel dx="1289" dy="826" grid="1" gridSize="10" guides="1" tooltips="1" connect="1" arrows="1" fold="1" page="1" pageScale="1" pageWidth="850" pageHeight="1100" math="0" shadow="0">
      <root>
        <mxCell id="0" />
        <mxCell id="1" parent="0" />
        <mxCell id="xu4zQ6H6kHJUm9Qcrabf-24" value="IoT Watering system (Arduino nano &amp;amp; SIM800L)" style="swimlane;childLayout=stackLayout;resizeParent=1;resizeParentMax=0;startSize=20;html=1;" vertex="1" parent="1">
          <mxGeometry x="10" y="10" width="820" height="760" as="geometry" />
        </mxCell>
        <mxCell id="xu4zQ6H6kHJUm9Qcrabf-25" value="Incoming SMS" style="swimlane;startSize=20;html=1;" vertex="1" parent="xu4zQ6H6kHJUm9Qcrabf-24">
          <mxGeometry y="20" width="410" height="740" as="geometry">
            <mxRectangle y="20" width="40" height="460" as="alternateBounds" />
          </mxGeometry>
        </mxCell>
        <mxCell id="xu4zQ6H6kHJUm9Qcrabf-32" style="edgeStyle=orthogonalEdgeStyle;rounded=0;orthogonalLoop=1;jettySize=auto;html=1;exitX=0.5;exitY=0.5;exitDx=0;exitDy=10;exitPerimeter=0;entryX=0.5;entryY=0;entryDx=0;entryDy=0;" edge="1" parent="xu4zQ6H6kHJUm9Qcrabf-25" source="xu4zQ6H6kHJUm9Qcrabf-28" target="xu4zQ6H6kHJUm9Qcrabf-29">
          <mxGeometry relative="1" as="geometry" />
        </mxCell>
        <mxCell id="xu4zQ6H6kHJUm9Qcrabf-28" value="Start" style="html=1;dashed=0;whiteSpace=wrap;shape=mxgraph.dfd.start" vertex="1" parent="xu4zQ6H6kHJUm9Qcrabf-25">
          <mxGeometry x="140" y="100" width="80" height="20" as="geometry" />
        </mxCell>
        <mxCell id="xu4zQ6H6kHJUm9Qcrabf-34" value="" style="edgeStyle=orthogonalEdgeStyle;rounded=0;orthogonalLoop=1;jettySize=auto;html=1;" edge="1" parent="xu4zQ6H6kHJUm9Qcrabf-25" source="xu4zQ6H6kHJUm9Qcrabf-29" target="xu4zQ6H6kHJUm9Qcrabf-33">
          <mxGeometry relative="1" as="geometry" />
        </mxCell>
        <mxCell id="xu4zQ6H6kHJUm9Qcrabf-29" value="Is sender in &quot;allowedList&quot;" style="rhombus;whiteSpace=wrap;html=1;" vertex="1" parent="xu4zQ6H6kHJUm9Qcrabf-25">
          <mxGeometry x="130" y="160" width="100" height="80" as="geometry" />
        </mxCell>
        <mxCell id="xu4zQ6H6kHJUm9Qcrabf-43" value="" style="edgeStyle=orthogonalEdgeStyle;rounded=0;orthogonalLoop=1;jettySize=auto;html=1;" edge="1" parent="xu4zQ6H6kHJUm9Qcrabf-25" source="xu4zQ6H6kHJUm9Qcrabf-33" target="xu4zQ6H6kHJUm9Qcrabf-42">
          <mxGeometry relative="1" as="geometry" />
        </mxCell>
        <mxCell id="xu4zQ6H6kHJUm9Qcrabf-33" value="Received SMS command" style="whiteSpace=wrap;html=1;" vertex="1" parent="xu4zQ6H6kHJUm9Qcrabf-25">
          <mxGeometry x="120" y="290" width="120" height="60" as="geometry" />
        </mxCell>
        <mxCell id="xu4zQ6H6kHJUm9Qcrabf-37" value="No" style="text;html=1;strokeColor=none;fillColor=none;align=center;verticalAlign=middle;whiteSpace=wrap;rounded=0;" vertex="1" parent="xu4zQ6H6kHJUm9Qcrabf-25">
          <mxGeometry x="210" y="170" width="60" height="30" as="geometry" />
        </mxCell>
        <mxCell id="xu4zQ6H6kHJUm9Qcrabf-38" value="Yes" style="text;html=1;strokeColor=none;fillColor=none;align=center;verticalAlign=middle;whiteSpace=wrap;rounded=0;" vertex="1" parent="xu4zQ6H6kHJUm9Qcrabf-25">
          <mxGeometry x="120" y="250" width="60" height="30" as="geometry" />
        </mxCell>
        <mxCell id="xu4zQ6H6kHJUm9Qcrabf-45" value="" style="edgeStyle=orthogonalEdgeStyle;rounded=0;orthogonalLoop=1;jettySize=auto;html=1;exitX=0;exitY=0.5;exitDx=0;exitDy=0;" edge="1" parent="xu4zQ6H6kHJUm9Qcrabf-25" source="xu4zQ6H6kHJUm9Qcrabf-42" target="xu4zQ6H6kHJUm9Qcrabf-44">
          <mxGeometry relative="1" as="geometry" />
        </mxCell>
        <mxCell id="xu4zQ6H6kHJUm9Qcrabf-47" style="edgeStyle=orthogonalEdgeStyle;rounded=0;orthogonalLoop=1;jettySize=auto;html=1;exitX=1;exitY=0.5;exitDx=0;exitDy=0;entryX=0.5;entryY=0;entryDx=0;entryDy=0;" edge="1" parent="xu4zQ6H6kHJUm9Qcrabf-25" source="xu4zQ6H6kHJUm9Qcrabf-42" target="xu4zQ6H6kHJUm9Qcrabf-46">
          <mxGeometry relative="1" as="geometry" />
        </mxCell>
        <mxCell id="xu4zQ6H6kHJUm9Qcrabf-42" value="Command" style="rhombus;whiteSpace=wrap;html=1;" vertex="1" parent="xu4zQ6H6kHJUm9Qcrabf-25">
          <mxGeometry x="140" y="390" width="80" height="80" as="geometry" />
        </mxCell>
        <mxCell id="xu4zQ6H6kHJUm9Qcrabf-67" style="edgeStyle=orthogonalEdgeStyle;rounded=0;orthogonalLoop=1;jettySize=auto;html=1;entryX=0.25;entryY=0;entryDx=0;entryDy=0;" edge="1" parent="xu4zQ6H6kHJUm9Qcrabf-25" source="xu4zQ6H6kHJUm9Qcrabf-44" target="xu4zQ6H6kHJUm9Qcrabf-66">
          <mxGeometry relative="1" as="geometry" />
        </mxCell>
        <mxCell id="xu4zQ6H6kHJUm9Qcrabf-44" value="Set received settings" style="whiteSpace=wrap;html=1;" vertex="1" parent="xu4zQ6H6kHJUm9Qcrabf-25">
          <mxGeometry x="30" y="530" width="120" height="60" as="geometry" />
        </mxCell>
        <mxCell id="xu4zQ6H6kHJUm9Qcrabf-68" style="edgeStyle=orthogonalEdgeStyle;rounded=0;orthogonalLoop=1;jettySize=auto;html=1;exitX=0.5;exitY=1;exitDx=0;exitDy=0;entryX=0.75;entryY=0;entryDx=0;entryDy=0;" edge="1" parent="xu4zQ6H6kHJUm9Qcrabf-25" source="xu4zQ6H6kHJUm9Qcrabf-46" target="xu4zQ6H6kHJUm9Qcrabf-66">
          <mxGeometry relative="1" as="geometry" />
        </mxCell>
        <mxCell id="xu4zQ6H6kHJUm9Qcrabf-46" value="Get settings" style="whiteSpace=wrap;html=1;" vertex="1" parent="xu4zQ6H6kHJUm9Qcrabf-25">
          <mxGeometry x="210" y="530" width="120" height="60" as="geometry" />
        </mxCell>
        <mxCell id="xu4zQ6H6kHJUm9Qcrabf-64" value="GET" style="text;html=1;strokeColor=none;fillColor=none;align=center;verticalAlign=middle;whiteSpace=wrap;rounded=0;" vertex="1" parent="xu4zQ6H6kHJUm9Qcrabf-25">
          <mxGeometry x="90" y="400" width="60" height="30" as="geometry" />
        </mxCell>
        <mxCell id="xu4zQ6H6kHJUm9Qcrabf-65" value="SET" style="text;html=1;strokeColor=none;fillColor=none;align=center;verticalAlign=middle;whiteSpace=wrap;rounded=0;" vertex="1" parent="xu4zQ6H6kHJUm9Qcrabf-25">
          <mxGeometry x="210" y="400" width="60" height="30" as="geometry" />
        </mxCell>
        <mxCell id="xu4zQ6H6kHJUm9Qcrabf-66" value="Send SMS" style="whiteSpace=wrap;html=1;" vertex="1" parent="xu4zQ6H6kHJUm9Qcrabf-25">
          <mxGeometry x="120" y="620" width="120" height="60" as="geometry" />
        </mxCell>
        <mxCell id="xu4zQ6H6kHJUm9Qcrabf-71" value="Incoming SMS" style="swimlane;startSize=20;html=1;" vertex="1" parent="xu4zQ6H6kHJUm9Qcrabf-24">
          <mxGeometry x="410" y="20" width="410" height="740" as="geometry">
            <mxRectangle y="20" width="40" height="460" as="alternateBounds" />
          </mxGeometry>
        </mxCell>
        <mxCell id="xu4zQ6H6kHJUm9Qcrabf-72" style="edgeStyle=orthogonalEdgeStyle;rounded=0;orthogonalLoop=1;jettySize=auto;html=1;exitX=0.5;exitY=0.5;exitDx=0;exitDy=10;exitPerimeter=0;entryX=0.5;entryY=0;entryDx=0;entryDy=0;" edge="1" parent="xu4zQ6H6kHJUm9Qcrabf-71" source="xu4zQ6H6kHJUm9Qcrabf-73" target="xu4zQ6H6kHJUm9Qcrabf-76">
          <mxGeometry relative="1" as="geometry" />
        </mxCell>
        <mxCell id="xu4zQ6H6kHJUm9Qcrabf-73" value="Start" style="html=1;dashed=0;whiteSpace=wrap;shape=mxgraph.dfd.start" vertex="1" parent="xu4zQ6H6kHJUm9Qcrabf-71">
          <mxGeometry x="130" y="70" width="80" height="20" as="geometry" />
        </mxCell>
        <mxCell id="xu4zQ6H6kHJUm9Qcrabf-74" value="" style="edgeStyle=orthogonalEdgeStyle;rounded=0;orthogonalLoop=1;jettySize=auto;html=1;" edge="1" parent="xu4zQ6H6kHJUm9Qcrabf-71" source="xu4zQ6H6kHJUm9Qcrabf-76" target="xu4zQ6H6kHJUm9Qcrabf-78">
          <mxGeometry relative="1" as="geometry" />
        </mxCell>
        <mxCell id="xu4zQ6H6kHJUm9Qcrabf-75" value="" style="edgeStyle=orthogonalEdgeStyle;rounded=0;orthogonalLoop=1;jettySize=auto;html=1;" edge="1" parent="xu4zQ6H6kHJUm9Qcrabf-71" source="xu4zQ6H6kHJUm9Qcrabf-76">
          <mxGeometry relative="1" as="geometry">
            <mxPoint x="310" y="170" as="targetPoint" />
          </mxGeometry>
        </mxCell>
        <mxCell id="xu4zQ6H6kHJUm9Qcrabf-76" value="Is sender in &quot;allowedList&quot;" style="rhombus;whiteSpace=wrap;html=1;" vertex="1" parent="xu4zQ6H6kHJUm9Qcrabf-71">
          <mxGeometry x="120" y="130" width="100" height="80" as="geometry" />
        </mxCell>
        <mxCell id="xu4zQ6H6kHJUm9Qcrabf-77" value="" style="edgeStyle=orthogonalEdgeStyle;rounded=0;orthogonalLoop=1;jettySize=auto;html=1;" edge="1" parent="xu4zQ6H6kHJUm9Qcrabf-71" source="xu4zQ6H6kHJUm9Qcrabf-78" target="xu4zQ6H6kHJUm9Qcrabf-84">
          <mxGeometry relative="1" as="geometry" />
        </mxCell>
        <mxCell id="xu4zQ6H6kHJUm9Qcrabf-78" value="Received SMS command" style="whiteSpace=wrap;html=1;" vertex="1" parent="xu4zQ6H6kHJUm9Qcrabf-71">
          <mxGeometry x="110" y="260" width="120" height="60" as="geometry" />
        </mxCell>
        <mxCell id="xu4zQ6H6kHJUm9Qcrabf-80" value="No" style="text;html=1;strokeColor=none;fillColor=none;align=center;verticalAlign=middle;whiteSpace=wrap;rounded=0;" vertex="1" parent="xu4zQ6H6kHJUm9Qcrabf-71">
          <mxGeometry x="200" y="140" width="60" height="30" as="geometry" />
        </mxCell>
        <mxCell id="xu4zQ6H6kHJUm9Qcrabf-81" value="Yes" style="text;html=1;strokeColor=none;fillColor=none;align=center;verticalAlign=middle;whiteSpace=wrap;rounded=0;" vertex="1" parent="xu4zQ6H6kHJUm9Qcrabf-71">
          <mxGeometry x="110" y="220" width="60" height="30" as="geometry" />
        </mxCell>
        <mxCell id="xu4zQ6H6kHJUm9Qcrabf-82" value="" style="edgeStyle=orthogonalEdgeStyle;rounded=0;orthogonalLoop=1;jettySize=auto;html=1;exitX=0;exitY=0.5;exitDx=0;exitDy=0;" edge="1" parent="xu4zQ6H6kHJUm9Qcrabf-71" source="xu4zQ6H6kHJUm9Qcrabf-84" target="xu4zQ6H6kHJUm9Qcrabf-86">
          <mxGeometry relative="1" as="geometry" />
        </mxCell>
        <mxCell id="xu4zQ6H6kHJUm9Qcrabf-83" style="edgeStyle=orthogonalEdgeStyle;rounded=0;orthogonalLoop=1;jettySize=auto;html=1;exitX=1;exitY=0.5;exitDx=0;exitDy=0;entryX=0.5;entryY=0;entryDx=0;entryDy=0;" edge="1" parent="xu4zQ6H6kHJUm9Qcrabf-71" source="xu4zQ6H6kHJUm9Qcrabf-84" target="xu4zQ6H6kHJUm9Qcrabf-88">
          <mxGeometry relative="1" as="geometry" />
        </mxCell>
        <mxCell id="xu4zQ6H6kHJUm9Qcrabf-84" value="Command" style="rhombus;whiteSpace=wrap;html=1;" vertex="1" parent="xu4zQ6H6kHJUm9Qcrabf-71">
          <mxGeometry x="130" y="360" width="80" height="80" as="geometry" />
        </mxCell>
        <mxCell id="xu4zQ6H6kHJUm9Qcrabf-85" style="edgeStyle=orthogonalEdgeStyle;rounded=0;orthogonalLoop=1;jettySize=auto;html=1;entryX=0.25;entryY=0;entryDx=0;entryDy=0;" edge="1" parent="xu4zQ6H6kHJUm9Qcrabf-71" source="xu4zQ6H6kHJUm9Qcrabf-86" target="xu4zQ6H6kHJUm9Qcrabf-92">
          <mxGeometry relative="1" as="geometry" />
        </mxCell>
        <mxCell id="xu4zQ6H6kHJUm9Qcrabf-86" value="Set received settings" style="whiteSpace=wrap;html=1;" vertex="1" parent="xu4zQ6H6kHJUm9Qcrabf-71">
          <mxGeometry x="20" y="500" width="120" height="60" as="geometry" />
        </mxCell>
        <mxCell id="xu4zQ6H6kHJUm9Qcrabf-87" style="edgeStyle=orthogonalEdgeStyle;rounded=0;orthogonalLoop=1;jettySize=auto;html=1;exitX=0.5;exitY=1;exitDx=0;exitDy=0;entryX=0.75;entryY=0;entryDx=0;entryDy=0;" edge="1" parent="xu4zQ6H6kHJUm9Qcrabf-71" source="xu4zQ6H6kHJUm9Qcrabf-88" target="xu4zQ6H6kHJUm9Qcrabf-92">
          <mxGeometry relative="1" as="geometry" />
        </mxCell>
        <mxCell id="xu4zQ6H6kHJUm9Qcrabf-88" value="Get settings" style="whiteSpace=wrap;html=1;" vertex="1" parent="xu4zQ6H6kHJUm9Qcrabf-71">
          <mxGeometry x="200" y="500" width="120" height="60" as="geometry" />
        </mxCell>
        <mxCell id="xu4zQ6H6kHJUm9Qcrabf-89" value="GET" style="text;html=1;strokeColor=none;fillColor=none;align=center;verticalAlign=middle;whiteSpace=wrap;rounded=0;" vertex="1" parent="xu4zQ6H6kHJUm9Qcrabf-71">
          <mxGeometry x="80" y="370" width="60" height="30" as="geometry" />
        </mxCell>
        <mxCell id="xu4zQ6H6kHJUm9Qcrabf-90" value="SET" style="text;html=1;strokeColor=none;fillColor=none;align=center;verticalAlign=middle;whiteSpace=wrap;rounded=0;" vertex="1" parent="xu4zQ6H6kHJUm9Qcrabf-71">
          <mxGeometry x="200" y="370" width="60" height="30" as="geometry" />
        </mxCell>
        <mxCell id="xu4zQ6H6kHJUm9Qcrabf-91" style="edgeStyle=orthogonalEdgeStyle;rounded=0;orthogonalLoop=1;jettySize=auto;html=1;exitX=1;exitY=0.5;exitDx=0;exitDy=0;entryX=0.5;entryY=1;entryDx=0;entryDy=0;" edge="1" parent="xu4zQ6H6kHJUm9Qcrabf-71" source="xu4zQ6H6kHJUm9Qcrabf-92">
          <mxGeometry relative="1" as="geometry">
            <mxPoint x="350" y="210" as="targetPoint" />
          </mxGeometry>
        </mxCell>
        <mxCell id="xu4zQ6H6kHJUm9Qcrabf-92" value="Send SMS" style="whiteSpace=wrap;html=1;" vertex="1" parent="xu4zQ6H6kHJUm9Qcrabf-71">
          <mxGeometry x="110" y="590" width="120" height="60" as="geometry" />
        </mxCell>
        <mxCell id="xu4zQ6H6kHJUm9Qcrabf-36" value="" style="edgeStyle=orthogonalEdgeStyle;rounded=0;orthogonalLoop=1;jettySize=auto;html=1;entryX=0.75;entryY=0;entryDx=0;entryDy=0;entryPerimeter=0;" edge="1" parent="xu4zQ6H6kHJUm9Qcrabf-24" source="xu4zQ6H6kHJUm9Qcrabf-29" target="xu4zQ6H6kHJUm9Qcrabf-73">
          <mxGeometry relative="1" as="geometry">
            <mxPoint x="320" y="220" as="targetPoint" />
            <Array as="points">
              <mxPoint x="370" y="220" />
              <mxPoint x="370" y="50" />
              <mxPoint x="600" y="50" />
            </Array>
          </mxGeometry>
        </mxCell>
        <mxCell id="xu4zQ6H6kHJUm9Qcrabf-70" style="edgeStyle=orthogonalEdgeStyle;rounded=0;orthogonalLoop=1;jettySize=auto;html=1;exitX=1;exitY=0.5;exitDx=0;exitDy=0;entryX=0.25;entryY=0;entryDx=0;entryDy=0;entryPerimeter=0;" edge="1" parent="xu4zQ6H6kHJUm9Qcrabf-24" source="xu4zQ6H6kHJUm9Qcrabf-66" target="xu4zQ6H6kHJUm9Qcrabf-73">
          <mxGeometry relative="1" as="geometry">
            <mxPoint x="670" y="70" as="targetPoint" />
            <Array as="points">
              <mxPoint x="390" y="670" />
              <mxPoint x="390" y="70" />
              <mxPoint x="560" y="70" />
            </Array>
          </mxGeometry>
        </mxCell>
      </root>
    </mxGraphModel>
  </diagram>
</mxfile>
